<?xml version="1.0" encoding="UTF-8" standalone="no"?>
<svg xmlns="http://www.w3.org/2000/svg" version="1.1" height="432.0853" width="1000">
  <title>BandSports</title>
  <g transform="translate(-324.53387,87.326322)">
    <g transform="matrix(0.97656306,0,0,0.97656306,7.6053404,8.0793106)">
      <path d="m 1284.3483,-91.033461 -808.06403,0 c -38.5679,0 -76.47369,30.912256 -84.17072,68.776665 l -30.91225,151.416256 948.3486,0 30.9123,-151.416256 c 7.697,-37.864409 -17.546,-68.776665 -56.1139,-68.776665" style="fill:#ffffff;fill-opacity:1;fill-rule:nonzero;stroke:none" />
      <path style="fill:#c4151c;fill-opacity:1;fill-rule:nonzero;stroke:none"  d="m 476.28516,-97.695312 c -41.67154,0 -82.34985,33.27133 -90.70899,74.115234 L 326.06836,268.03711 c -4.13818,20.27711 0.166,39.47777 12.08398,54.12695 11.87659,14.6078 29.87743,22.59571 50.56836,22.59571 l 808.0215,0 c 41.7129,0 82.4341,-33.18894 90.7519,-74.07422 L 1347,-20.890625 c 4.1382,-20.318497 -0.164,-39.521106 -12.082,-54.128906 -11.918,-14.607799 -29.8793,-22.675781 -50.5703,-22.675781 l -808.06254,0 z m 0,13.365234 808.06254,0 c 16.6355,0 30.9133,6.249747 40.2656,17.753906 9.3109,11.421396 12.6624,26.691638 9.3105,42.996094 l -30.6816,150.462888 -934.76954,0 30.17968,-147.773435 c 7.11768,-35.00906 41.96165,-63.439453 77.63282,-63.439453 z" />
      <path style="fill:#c4151c;fill-opacity:1;fill-rule:nonzero;stroke:none" d="m 455.63477,-53.996094 0.0156,0.002 -35.58789,167.470704 143.22266,0 c 25.52882,0 43.44017,-5.85333 55.74023,-16.085938 l -10.23828,16.042968 70.34961,0 11.13281,-19.201171 68.90039,0 2.93946,19.201171 70.3496,0 54.12305,0 19.94727,-93.771484 0.45703,0 50.40234,93.771484 72.45905,0 35.5468,-167.429687 -63.2715,0 -19.74021,92.859375 -0.70117,0 -47.3418,-92.859375 -75.48046,0 -0.002,0 -31,145.833985 -31.07031,-145.833985 -81.15039,0 -0.002,0 -77.58008,121.566406 c 0.8491,-2.730908 1.58343,-5.552874 2.20117,-8.46875 C 642.9043,46.645621 640.131,26.493535 619.8125,20.824219 l 0.0664,-0.457031 c 13.6974,-4.924443 23.71239,-17.8360489 26.85742,-32.609376 5.66931,-26.732686 -6.3729,-41.753906 -40.59571,-41.753906 l -150.50585,0 z m 624.53513,0 -35.5469,167.429684 130.1055,0 c 55.5344,0 90.6258,-24.869824 103.1231,-83.71484 13.118,-61.658983 -12.2085,-83.714844 -68.9844,-83.714844 l -128.6973,0 z m -568.50388,40.802735 49.90625,0 c 13.36635,0 15.47455,4.510615 14.19335,10.5937496 C 574.35864,3.9387257 570.34486,8.40625 556.97852,8.40625 l -49.90625,0 4.59375,-21.599609 z m 625.65238,1.40625 37.9882,0 c 30.2502,0 39.2315,15.0214634 33.6036,41.505859 -5.6279,26.525777 -20.9823,41.546875 -51.2325,41.546875 l -37.9882,0 17.6289,-83.052734 z m -392.09379,8.4824215 0.45508,0 7.61328,56.7343755 -39.84961,0 31.78125,-56.7343755 z m -246.22266,49.7011715 56.48633,0 c 13.15943,0 15.85115,5.875361 14.31836,13.117188 -1.57251,7.490118 -6.78625,13.160156 -19.9043,13.160156 l -56.48632,0 5.58593,-26.277344 z" />
      <path style="fill:#ffffff;fill-opacity:1;fill-rule:nonzero;stroke:none" d="m 1178.6582,142.56641 c -35.4228,0.0414 -65.3412,10.92599 -73.5762,51.0664 -4.4693,21.72548 0.6619,39.10461 20.7735,43.61524 l 0,0.01 47.0507,10.38672 c 5.4955,1.28284 6.5824,5.83436 5.629,10.42774 -1.4897,7.36598 -6.2482,12.58007 -19.6973,12.58007 -6.7038,0 -11.2174,-1.07268 -13.9883,-3.26757 -2.5823,-2.35877 -3.2268,-5.83471 -2.3164,-11.04883 l -51.9355,0.0332 c -9.2281,45.56143 25.6167,52.05859 58.7636,52.05859 48.4582,-0.0414 73.7828,-17.83591 81.5625,-55.57617 5.4211,-26.31887 -5.0485,-40.63782 -25.8222,-45.14844 l -49.2442,-10.80078 c -4.105,-0.86902 -4.883,-3.72327 -3.9726,-8.06836 1.3242,-6.49696 6.7048,-11.05674 19.5332,-11.08984 4.7176,0 9.4336,0.86743 12.7441,3.26758 3.5589,2.19324 5.3377,6.08141 4.0567,12.33008 l 50.1132,0 c 5.2141,-32.77444 -11.0914,-50.77539 -59.6738,-50.77539 z m -703.69726,0.41406 c -35.46426,0 -65.34277,10.84164 -73.61914,51.02344 -4.46924,21.72548 0.66184,39.06518 20.77343,43.61718 l 0,0.01 47.05079,10.38672 c 5.52864,1.28284 6.57902,5.8363 5.6289,10.42969 -1.48975,7.32459 -6.24816,12.53711 -19.69726,12.53711 -6.70387,0.0397 -11.21735,-1.03168 -13.98828,-3.22657 -2.54913,-2.40015 -3.22681,-5.83472 -2.31641,-11.04883 l -51.93555,0.0332 c -9.18678,45.56144 25.65781,52.01562 58.80469,52.01562 48.41679,-0.0414 73.74133,-17.8359 81.5625,-55.57617 5.42103,-26.27748 -5.08958,-40.59485 -25.86328,-45.10547 L 452.1582,197.23438 c -4.08024,-0.86902 -4.92407,-3.68225 -4.01367,-8.02735 1.32422,-6.49695 6.70483,-11.04883 19.5332,-11.04883 4.75892,0 9.47461,0.82649 12.78516,3.1836 3.51746,2.19324 5.33985,6.12438 4.01563,12.37304 l 50.11328,0 c 5.21412,-32.77444 -11.08993,-50.76747 -59.63086,-50.73437 z m 293.52148,1.94531 c -26.11196,0 -75.06713,2.52496 -91.53711,79.3711 -16.46998,76.88586 31.40953,79.32812 57.52149,79.32812 26.11196,0 75.06517,-2.48163 91.53515,-79.36914 16.46998,-76.88917 -31.40757,-79.36318 -57.51953,-79.33008 z m 338.62698,3.16211 -122.77932,0.0664 -8.07031,39.02343 39.85153,0 0,0.008 -23.87692,115.91015 43.07812,-0.0332 23.877,-115.91016 39.8925,0 8.0274,-39.06445 z m -168.54885,0.0664 -90.75,0.0664 -31.9043,154.9336 43.03711,0 9.88867,-47.75586 30.54102,-0.0332 c 7.94698,0 7.98559,6.95288 6.08203,18.45704 l -5.41992,29.29882 44.52734,-0.0332 10.65039,-52.10156 c 1.98633,-13.4491 -3.22729,-21.22852 -9.10351,-23.87695 l 0.0664,-0.3711 c 13.61464,-5.21411 21.1045,-20.85778 24.08399,-35.38281 3.51746,-16.96657 -0.12438,-31.9049 -7.03516,-37.57422 -5.13135,-4.13819 -12.29088,-5.62695 -24.66406,-5.62695 z m -293.93555,0.18164 -88.88672,0.0664 -31.94726,154.9336 43.07812,-0.0332 9.93164,-48.16796 46.14063,-0.0332 c 30.53982,0 46.2661,-23.00815 52.39062,-52.76172 7.11768,-34.47109 -0.16688,-54.0039 -30.70703,-54.0039 z m 115.82812,34 c 17.58729,-0.0414 26.19581,11.75254 19.74024,41.91992 -6.45557,30.126 -20.15331,41.96885 -37.69922,42.00195 -17.58729,0 -26.19385,-11.83493 -19.73828,-41.96093 6.45557,-30.12601 20.15135,-41.96094 37.69726,-41.96094 z m -169.16796,2.44922 27.80859,0 c 10.84205,0 13.98609,4.75963 11.58594,16.4707 -2.31738,11.33863 -7.44897,16.0957 -18.29102,16.0957 l -27.80664,0.0332 6.70313,-32.59961 z m 321.49609,2.4414 c 7.20044,0 11.95745,2.85534 9.51758,14.56641 -1.98633,9.80751 -6.49792,14.52539 -14.89844,14.52539 l -30.53906,0.0332 6,-29.09179 29.91992,-0.0332 z" />
    </g>
  </g>
</svg>
